<svg width="25" height="24" viewBox="0 0 25 24" fill="none" xmlns="http://www.w3.org/2000/svg">
<path d="M4.74217 18.0428L14.9676 7.81738C14.8675 7.81693 14.7658 7.81884 14.6629 7.81738L13.9096 7.79729C12.0952 7.72643 9.92306 7.47003 8.1381 6.73507L7.57727 6.50405L7.80746 5.94406L8.27035 4.82324L8.50054 4.26326L9.06053 4.49344C10.4631 5.07097 12.299 5.30731 13.9849 5.37486L14.6964 5.39328C15.1533 5.39971 15.5835 5.39494 15.9712 5.38407L16.9924 5.33887L17.6654 5.28864C17.7424 5.28185 17.8011 5.27747 17.8395 5.27358L17.8395 5.2719L17.8822 5.26939L17.8822 5.26772L17.894 5.26772L17.894 5.26604L19.3998 5.09947L19.2332 6.60533L19.2316 6.6137L19.2274 6.65974L19.2106 6.83385L19.1604 7.50684C19.1338 7.93921 19.1096 8.50066 19.1043 9.13993L19.106 9.80287C19.1324 11.6672 19.3459 13.8358 20.0058 15.4388L20.2369 15.9996L17.9952 16.922L17.7642 16.3612C16.9244 14.3214 16.7091 11.7757 16.6819 9.83636L16.6819 9.53167L6.45646 19.7571L4.74217 18.0428Z" fill="white"/>
</svg>
