<svg width="24" height="24" viewBox="0 0 24 24" fill="none" xmlns="http://www.w3.org/2000/svg">
<path d="M13.2128 2.2417L13.2128 16.7027C13.2839 16.6322 13.3544 16.559 13.4282 16.4872L13.9751 15.9687C15.3082 14.7359 17.0254 13.3812 18.8073 12.6388L19.3672 12.4056L19.6004 12.9643L20.0656 14.0842L20.2988 14.6429L19.7401 14.8761C18.3399 15.4595 16.8747 16.5905 15.6348 17.7349L15.1187 18.225C14.791 18.5435 14.4902 18.8511 14.2237 19.1329L13.5336 19.887L13.0932 20.3984C13.0436 20.4576 13.0052 20.5022 12.9808 20.5322L12.9819 20.5334L12.9535 20.5653L12.9547 20.5665L12.9464 20.5748L12.9476 20.576L12.0006 21.7586L11.0536 20.576L11.0488 20.5689L11.0193 20.5334L10.908 20.3984L10.4676 19.887C10.1807 19.5625 9.80079 19.1483 9.3525 18.6926L8.88254 18.225C7.54562 16.9253 5.86122 15.5429 4.2611 14.8761L3.70117 14.6429L4.63398 12.4056L5.19391 12.6388C7.23006 13.4873 9.18242 15.1352 10.573 16.4872L10.7884 16.7027L10.7884 2.2417H13.2128Z" fill="white"/>
</svg>
