<svg width="68" height="18" viewBox="0 0 68 18" fill="none" xmlns="http://www.w3.org/2000/svg">
<path d="M62.0226 8.83084L62.0226 8.31259C62.0226 7.94906 61.9319 7.59164 61.7594 7.2725L61.7238 7.20916L61.5557 6.92133C61.4092 6.67051 61.1802 6.47833 60.9078 6.3774C60.5798 6.25589 60.217 6.27692 59.9065 6.43338L59.8452 6.46642C59.4498 6.69393 59.1777 7.08723 59.1041 7.53746L58.9719 8.3478L58.784 10.4208L58.784 11.7121C58.784 12.0251 58.9083 12.3255 59.1297 12.5468L59.2044 12.6214L59.2509 12.6652C59.4893 12.8747 59.8153 12.958 60.1271 12.886C60.3402 12.8368 60.531 12.7185 60.6697 12.5494L61.049 12.0872L61.0953 12.0292C61.3227 11.7362 61.4886 11.4 61.5826 11.0407L61.8891 9.86863L61.9203 9.74108C61.9883 9.44258 62.0226 9.13725 62.0226 8.83084ZM8.92956 7.04836C9.04862 6.81694 8.9379 6.50993 8.69006 6.58934L8.66452 6.59829L7.51564 7.02578C7.28728 7.11075 7.07661 7.23698 6.89424 7.39816L6.85817 7.43091L6.09769 8.13715C5.778 8.434 5.53806 8.80651 5.40011 9.22038L5.01431 10.3778C4.92462 10.6468 5.00145 10.9436 5.21052 11.1352L5.23361 11.1553C5.47439 11.358 5.82075 11.3811 6.08701 11.2088L6.74982 10.7799C7.00514 10.6147 7.21276 10.3855 7.35189 10.115L8.92956 7.04836ZM63.5 8.83084C63.5 9.27742 63.4463 9.72228 63.3403 10.1559L63.3184 10.2424L63.0118 11.4146C62.8672 11.9672 62.6122 12.4845 62.2624 12.9351L62.1911 13.0244L61.8118 13.4865C61.466 13.908 60.9904 14.2031 60.4592 14.3256C59.6562 14.511 58.8155 14.2829 58.2168 13.7216L58.1597 13.6661L58.0851 13.5916C57.5867 13.0931 57.3066 12.417 57.3066 11.7121L57.3066 10.388C57.3066 10.3658 57.3076 10.3435 57.3096 10.3214L57.4454 8.82215C57.4522 8.74684 57.3599 8.70543 57.3082 8.76057L57.3049 8.76404L56.4001 9.71526C55.9327 10.2067 55.369 10.5967 54.7444 10.861L54.143 11.1153C53.6456 11.3258 53.0991 11.3901 52.5677 11.3016L52.4616 11.2818C51.7667 11.1388 51.1511 10.7414 50.7348 10.1689L50.6951 10.1129L50.5589 9.9158C50.5447 9.89524 50.5307 9.87453 50.517 9.85368C50.2594 9.46294 49.6396 9.34282 49.3491 9.70977C48.9839 10.1711 48.5053 10.5288 47.9609 10.7484L47.8511 10.7906L47.5314 10.9068C47.1009 11.0634 46.6345 11.0894 46.1905 10.9827L46.102 10.9595C45.5322 10.7987 45.0455 10.4275 44.7399 9.92201L44.7109 9.87266L44.6591 9.78191C44.4358 9.39112 44.3183 8.9488 44.3183 8.49871C44.3183 8.1404 43.8812 7.96534 43.6339 8.22457L42.6464 9.25948L42.6137 9.29195L40.8814 10.8941L40.8438 10.9265L39.6821 11.8648C39.069 12.3601 38.3936 12.7731 37.6734 13.0932L37.0876 13.3535C36.6881 13.5311 36.2652 13.6505 35.8318 13.7083L35.5717 13.743C34.8163 13.8438 34.0481 13.7116 33.3698 13.3642C32.7979 13.0712 32.3116 12.6363 31.9571 12.102L31.888 11.994L31.8675 11.9608C31.4909 11.3488 31.2915 10.6442 31.2915 9.92561L31.2915 9.43478C31.2915 9.22432 30.9108 9.07953 30.7717 9.2375C30.5604 9.4776 30.3293 9.70049 30.0805 9.90368L29.9601 9.99934L29.6647 10.228C29.0822 10.6788 28.3958 10.9762 27.6686 11.0928L27.1258 11.18C26.6568 11.2552 26.176 11.1955 25.7396 11.008C25.0433 10.7088 24.521 10.1112 24.3166 9.38414L24.2978 9.3133C24.2652 9.18304 24.0904 9.15912 24.024 9.27583L23.9259 9.44834C23.8957 9.50146 23.8621 9.5526 23.8252 9.60128L23.7872 9.64903L23.1207 10.4529C22.715 10.9422 22.1498 11.2727 21.5245 11.3864L21.3299 11.4218C20.6433 11.5466 19.9383 11.3534 19.4122 10.8986L19.3618 10.8537C19.0424 10.5609 18.8126 10.1843 18.6979 9.76763L18.6764 9.6838L18.3868 8.4534C18.3626 8.35048 18.2247 8.3017 18.153 8.3794L17.119 9.4997C17.0074 9.62062 16.8819 9.72778 16.7452 9.81913L16.6861 9.85737L15.0971 10.8434C14.6474 11.1225 14.1286 11.2704 13.5992 11.2704C12.6377 11.2704 11.7436 10.7843 11.2204 9.9826L11.1709 9.90397L10.7029 9.13295C10.7008 9.12951 10.6987 9.12603 10.6967 9.12256C10.4263 8.66037 9.75225 8.67861 9.5073 9.15476L8.66553 10.791C8.40828 11.291 8.02452 11.7149 7.55243 12.0204L6.88962 12.4492C6.07625 12.9755 5.01794 12.9051 4.28239 12.2858L4.21227 12.2242C3.57358 11.6388 3.33882 10.7326 3.6128 9.9106L3.9986 8.75307C4.21494 8.10409 4.59107 7.51998 5.09236 7.05449L5.85285 6.34825L5.9159 6.29126C6.23422 6.00992 6.60182 5.78947 7.00043 5.64115L8.14931 5.21366L8.19461 5.19735C9.14236 4.86942 10.191 5.27343 10.6729 6.15593L11.9673 8.36886L12.4338 9.13728L12.4576 9.17494C12.7087 9.5597 13.1378 9.79302 13.5992 9.79302C13.8532 9.79301 14.1022 9.72207 14.318 9.58815L15.907 8.60201L15.9412 8.57921C15.9746 8.55521 16.0055 8.52783 16.0335 8.49755L17.3753 7.0441L17.4188 6.99866C18.014 6.40345 18.8888 6.4943 19.4057 6.98745C20.007 7.56117 19.9241 8.53633 20.1145 9.34533L20.1222 9.37534C20.1633 9.52469 20.2457 9.65964 20.3602 9.7646L20.3967 9.79619C20.5831 9.94805 20.8275 10.0116 21.0656 9.96832L21.2602 9.93282C21.5435 9.88131 21.7995 9.73159 21.9833 9.50995C22.4241 8.97829 22.8175 8.40911 23.159 7.80891L23.4391 7.31679L23.4677 7.26903C23.8512 6.65846 24.5963 6.64091 25.0637 6.99765C25.6218 7.42371 25.5608 8.27388 25.7311 8.95506L25.7474 9.01277C25.8367 9.29817 26.0463 9.53177 26.3229 9.65062C26.502 9.72759 26.6994 9.75205 26.8919 9.72117L27.4346 9.63403C27.9176 9.55654 28.3736 9.3591 28.7605 9.05966L29.056 8.83098L29.146 8.75942C29.591 8.39599 29.9605 7.94836 30.2333 7.44188L30.4569 7.02679L30.5071 6.93489C31.0321 5.98972 31.7414 5.15909 32.5935 4.49242L32.9666 4.20054L33.0129 4.16707C33.0604 4.13549 33.1115 4.10946 33.1651 4.08959L34.0785 3.75126L34.1349 3.73121C34.72 3.53202 35.3624 3.5824 35.9101 3.87231L35.9966 3.9205C36.4226 4.17058 36.7552 4.55474 36.9414 5.01427L37.2375 5.74489L37.2509 5.78052C37.3791 6.14967 37.1966 6.55848 36.8303 6.70693C36.4641 6.85536 36.0484 6.68897 35.8834 6.33469L35.8683 6.29978L35.5722 5.56916C35.5085 5.41179 35.3945 5.28026 35.2486 5.19461L35.2191 5.17817C35.0375 5.08209 34.8256 5.06281 34.6305 5.12349L34.5917 5.13661C34.1974 5.28268 33.8799 5.58358 33.7129 5.9695L33.4537 6.56857C33.2344 7.07525 33.0661 7.60248 32.9512 8.14249L32.8595 8.57316C32.7993 8.85638 32.7689 9.14522 32.7689 9.43478L32.7689 9.92561C32.7689 10.3708 32.8924 10.8073 33.1257 11.1865L33.1462 11.2196L33.1881 11.2851C33.4027 11.6086 33.6971 11.8719 34.0433 12.0492C34.454 12.2596 34.9191 12.3396 35.3765 12.2786L35.6364 12.2439C35.9301 12.2047 36.2168 12.1237 36.4875 12.0033L37.0733 11.7431C37.6758 11.4753 38.2407 11.1298 38.7537 10.7155L39.897 9.79216L41.5939 8.22256L43.4805 6.24524L43.5202 6.20528C44.363 5.387 45.7957 5.97954 45.7957 7.17266L45.7957 8.49871C45.7957 8.6917 45.8461 8.88142 45.9419 9.04898L45.9937 9.13959L46.0153 9.17552C46.1277 9.35155 46.3012 9.48069 46.5031 9.53765L46.5354 9.54616C46.6981 9.58523 46.8689 9.57564 47.0266 9.51832L47.3463 9.40203L47.4082 9.37837C47.7151 9.25456 47.9849 9.05282 48.1907 8.79275L48.6771 8.17832C48.9568 7.82501 49.1917 7.43848 49.3765 7.02751L49.3999 6.9786C49.7625 6.25964 50.6614 6.28644 51.0928 6.77874C51.4332 7.16727 51.3697 7.75572 51.4504 8.26599L51.4598 8.32038C51.5104 8.59135 51.6175 8.84884 51.7744 9.07596L51.9106 9.27305L51.9493 9.32629C52.1488 9.58722 52.4363 9.76822 52.7594 9.83472L52.8103 9.84424C53.0657 9.88677 53.3283 9.85593 53.5674 9.75479L54.1689 9.50028C54.6068 9.315 55.0018 9.04149 55.3296 8.69695L56.231 7.74933L58.0092 5.85526L58.0479 5.81688C58.088 5.78007 58.1321 5.74785 58.1793 5.72065L59.1082 5.18596L59.1746 5.14902C59.8649 4.77685 60.6833 4.71862 61.421 4.99191L61.4762 5.01312C62.0449 5.23789 62.5223 5.6472 62.8313 6.17614L62.9995 6.46397L63.0591 6.57001C63.3481 7.10471 63.5 7.70351 63.5 8.31259L63.5 8.83084Z" fill="white"/>
</svg>
